<?xml version="1.0" encoding="UTF-8"?>
<svg width="191px" height="151px" viewBox="0 0 191 151" version="1.1" xmlns="http://www.w3.org/2000/svg" xmlns:xlink="http://www.w3.org/1999/xlink" style="background: #12377E;">
    <!-- Generator: Sketch 43.1 (39012) - http://www.bohemiancoding.com/sketch -->
    <title>Blue</title>
    <desc>Created with Sketch.</desc>
    <defs></defs>
    <g id="Page-1" stroke="none" stroke-width="1" fill="none" fill-rule="evenodd">
        <g id="Blue">
            <g id="uninspired" transform="translate(69.000000, 9.000000)">
                <circle id="Oval" stroke="#000000" stroke-width="4" cx="55" cy="72" r="55"></circle>
                <path d="M63,45.5127711 L90.6187799,17" id="Line" stroke="#000000" stroke-width="2" stroke-linecap="round"></path>
                <path d="M52,38.1415144 L63,0" id="Line" stroke="#000000" stroke-width="2" stroke-linecap="round"></path>
                <circle id="Oval-Copy" stroke="#000000" stroke-width="3" cx="36.2083333" cy="72.4583333" r="36.2083333"></circle>
                <ellipse id="Oval-Copy-2" stroke="#000000" stroke-width="1" cx="48.5" cy="61.5" rx="9.5" ry="9.5"></ellipse>
                <ellipse id="Oval-Copy-3" stroke="#000000" stroke-width="1" cx="58" cy="74" rx="4" ry="4"></ellipse>
                <ellipse id="Oval-Copy-4" stroke="#000000" stroke-width="1" cx="50" cy="77" rx="2" ry="2"></ellipse>
                <path d="M35,35.5 L35,7.5" id="Line" stroke="#000000" stroke-width="2" stroke-linecap="round"></path>
                <path d="M75.9229212,66.8628238 L77.5972976,66.7081726 C77.6525609,66.7124525 77.7013772,66.8736891 77.7431096,67.1906604 C77.7841254,67.5065684 77.7752823,67.6607628 77.7172375,67.6544737 L75.9608127,67.7462183 C75.785657,67.7868666 75.6575266,67.9854263 75.5733129,68.3358028 C75.485042,68.6838476 75.4397438,69.1521036 75.4377375,69.7388802 C75.4320585,70.3210561 75.4762411,70.7589266 75.5745067,71.0578958 C75.6747242,71.359453 75.830365,71.5026712 76.04028,71.4899527 L78.1604475,71.6721647 C78.230878,71.6871996 78.2810808,71.845293 78.310276,72.1452327 C78.3386253,72.4441191 78.3157443,72.5844347 78.242432,72.5673994 L76.0380023,72.3224993 C75.719898,72.3336799 75.4949863,72.1135835 75.3652021,71.6563389 C75.2389532,71.2036128 75.1886313,70.5857487 75.2063456,69.7928019 C75.217083,68.9911366 75.2813587,68.321605 75.3978562,67.7865461 C75.5057315,67.2459042 75.67862,66.9335061 75.9229212,66.8628238 Z M75.1588486,74.1650695 L78.3938422,74.5523265 C78.4770148,74.5747474 78.5293546,74.7314132 78.5499848,75.0210813 C78.566774,75.266038 78.5022015,75.4698857 78.3550695,75.6329473 L75.4498527,78.3232954 L78.6010459,79.0923573 C78.6965612,79.1246456 78.7474118,79.2777897 78.7526116,79.5505909 C78.7568102,79.8223499 78.7092001,79.9404839 78.6107844,79.9061988 L74.6557553,78.971437 C74.6111446,78.9665925 74.5812652,78.9263998 74.5661431,78.8508044 C74.5510805,78.7752814 74.5505585,78.6900558 74.5644244,78.5949491 C74.5906842,78.4115959 74.6821082,78.2554124 74.8379497,78.1267411 L77.8015235,75.2501171 L75.1021522,74.9438883 C75.0639564,74.9444894 75.0368937,74.9060513 75.0210024,74.8285187 C75.0051733,74.7510583 75.0013502,74.6615392 75.0093815,74.5597826 C75.0178741,74.4500169 75.0357421,74.3572387 75.0629522,74.2814734 C75.0899546,74.2055571 75.121866,74.1666824 75.1588486,74.1650695 Z M78.2688148,81.3139202 C78.3415825,81.3395584 78.4025957,81.4133253 78.4519524,81.535193 C78.5016107,81.657302 78.5247927,81.7938464 78.5210147,81.9443907 C78.5171186,82.0866938 78.4869885,82.197163 78.4305441,82.2758373 C78.3736856,82.3542498 78.3073226,82.3794881 78.2318998,82.3519598 C78.1566578,82.3247126 78.0938734,82.252693 78.0436442,82.1358879 C77.993725,82.0193492 77.9722665,81.8910901 77.9788071,81.7506749 C77.9853796,81.6021232 78.0173931,81.4859418 78.0747666,81.4021735 C78.1316903,81.3181222 78.1962175,81.2885636 78.2688148,81.3139202 Z M74.4150136,80.4742738 L76.9624671,81.0463905 C77.00384,81.0585824 77.0364752,81.1034963 77.0604046,81.1811178 C77.0844226,81.2588166 77.0924231,81.3512349 77.0842036,81.4581771 C77.0758024,81.5649319 77.0537958,81.6497979 77.0181645,81.712805 C76.9823268,81.7756612 76.9430889,81.8004869 76.9006412,81.7874696 L74.2895929,81.1627299 C74.2494495,81.1560701 74.2200616,81.1151592 74.2014718,81.0399999 C74.1829618,80.9649449 74.1824267,80.8818739 74.199698,80.7905842 C74.2168245,80.6991325 74.2472768,80.6221463 74.2910072,80.5596306 C74.3345274,80.496962 74.3758046,80.468447 74.4150136,80.4742738 Z M73.9938966,82.6043707 L78.5060171,83.9821338 C78.6240068,84.0286422 78.6765316,84.1792461 78.662453,84.4327185 C78.6496682,84.6469723 78.5255131,84.8001586 78.2893826,84.8925673 L73.969642,86.3636613 L78.1403957,87.9405886 C78.2684656,87.9960415 78.3172946,88.1427352 78.2856773,88.3794835 C78.2529593,88.6151962 78.1706297,88.703725 78.0399077,88.6462623 L72.8713187,86.7163304 C72.8141419,86.6997045 72.77922,86.6556822 72.7665467,86.5842106 C72.753925,86.5128118 72.7609522,86.4367973 72.7874847,86.3559883 C72.8381145,86.2001302 72.9710671,86.086786 73.1860152,86.0162776 L77.551161,84.3874388 L73.8403946,83.2742918 C73.7887812,83.2631547 73.7560031,83.2209225 73.7420699,83.1475414 C73.7281923,83.0742329 73.7316753,82.9939406 73.7523693,82.906486 C73.7744937,82.8121228 73.8077155,82.7356955 73.8520215,82.6772289 C73.8961408,82.6186104 73.9433756,82.5942509 73.9938966,82.6043707 Z M73.070738,87.9248008 C73.1302638,87.9446289 73.1812499,87.9942868 73.2237935,88.0738733 C73.2665396,88.1537304 73.2765849,88.227649 73.2536996,88.2953413 C73.2369911,88.3444991 73.1832907,88.3944724 73.0924234,88.4451273 L72.7822559,88.6239892 C72.6683152,88.6863354 72.5431122,88.8035388 72.4059014,88.974715 C72.2672829,89.1443259 72.1468848,89.3542363 72.0446305,89.6042926 C71.8725431,90.0132816 71.8297254,90.3615055 71.9203378,90.6542371 C72.0125023,90.9491316 72.23992,91.1695124 72.6037156,91.3170277 C72.8498406,91.4185437 73.0820131,91.4523935 73.2987977,91.4168266 C73.5151335,91.3808819 73.7026242,91.2962031 73.8606348,91.1620373 C74.0206763,91.0348747 74.1768957,90.8773746 74.3288639,90.6890729 L74.7734669,90.1126641 C74.9178398,89.9166947 75.0681272,89.7488167 75.2246856,89.6094395 C75.3797584,89.4687011 75.5675463,89.3767798 75.7887398,89.3345168 C76.0093443,89.2920191 76.2513698,89.3261786 76.516752,89.4389034 C76.8006018,89.5610517 77.0330034,89.7342925 77.2140056,89.9583569 C77.3974461,90.1846472 77.52147,90.4352014 77.5846553,90.7086391 C77.6484204,90.9824501 77.6809742,91.2474343 77.6814941,91.5028964 C77.6814971,91.7577936 77.6529188,92.0117836 77.5950493,92.2642678 C77.4990939,92.6667001 77.3519053,93.015341 77.1529978,93.3098328 C76.9497241,93.6002931 76.7657767,93.7048235 76.6049686,93.6269315 C76.5310064,93.591197 76.4637675,93.5281282 76.4033552,93.4378169 C76.3432428,93.3477665 76.3247509,93.265112 76.34755,93.1895522 C76.3588969,93.1517208 76.4093044,93.0928008 76.4984327,93.0124665 C76.5870684,92.9316664 76.6873031,92.8072072 76.798476,92.6384632 C76.9082611,92.4684242 76.9953961,92.256082 77.059795,92.0013152 C77.1606245,91.5867106 77.1625343,91.2056908 77.0694687,90.8618117 C76.9776922,90.5189125 76.7583041,90.2706046 76.4129534,90.1189046 C76.1754285,90.0158569 75.9572903,90.0110225 75.7564197,90.1023365 C75.5543375,90.1926707 75.3835416,90.3406385 75.2434081,90.5455028 C75.1012661,90.7483973 74.9373166,90.9620483 74.7509534,91.1858516 C74.5618242,91.4068681 74.3693392,91.6037982 74.1739323,91.7770798 C73.976402,91.9481475 73.7231716,92.050219 73.4153515,92.0845429 C73.1069375,92.1183118 72.7706893,92.0567612 72.4094788,91.9033618 C71.8434765,91.6686423 71.4983139,91.3417804 71.3707908,90.9184738 C71.2463604,90.4997193 71.3095304,90.0208776 71.5525783,89.4717151 C71.76431,88.9714558 72.0310763,88.576537 72.3532505,88.2880647 C72.6698197,87.9938 72.9074163,87.8710002 73.070738,87.9248008 Z M70.5116298,92.2805161 L76.5355739,95.0611222 C76.6771496,95.131919 76.7264512,95.2572662 76.6825298,95.4363414 L76.0805262,97.0974184 C75.8585277,97.6465744 75.5000983,97.9856492 75.0087332,98.1168446 C74.5137083,98.2425237 73.8939196,98.1045738 73.1639082,97.7156252 L73.0655606,97.663466 C72.3527963,97.2874264 71.9221883,96.8731532 71.765841,96.4154739 C71.6133286,95.9623183 71.6758213,95.4899609 71.9451816,94.98847 L72.5306476,93.8159128 L70.2298915,92.7980196 C70.1636023,92.7702751 70.1256555,92.7225949 70.1160086,92.6549279 C70.1064043,92.5873341 70.1203423,92.5199117 70.1577005,92.4524811 C70.1977968,92.3796807 70.2504461,92.3261908 70.3156711,92.2920348 C70.3807825,92.257723 70.4460494,92.2538096 70.5116298,92.2805161 Z M73.0340166,94.0509445 L72.4611442,95.2395555 C72.2728097,95.6044676 72.2419792,95.9418892 72.3731414,96.2570448 C72.5065658,96.5747023 72.8190589,96.8610968 73.314132,97.118555 L73.4308911,97.1795447 C74.43306,97.7067017 75.1269305,97.5778541 75.4757579,96.7623276 L75.9696658,95.484904 L73.0340166,94.0509445 Z M74.1877322,99.1223979 C74.3056489,99.1868467 74.3884203,99.2771175 74.4359433,99.3931938 C74.483743,99.5095129 74.4810971,99.618925 74.4275523,99.7209921 C74.3765255,99.8173683 74.2905938,99.8752264 74.1698785,99.8945928 C74.0490391,99.9136817 73.9287013,99.8898214 73.8092753,99.8234203 C73.6902764,99.757287 73.6057656,99.6674824 73.5556411,99.5540034 C73.5058071,99.440792 73.5073633,99.337192 73.5598835,99.2427663 C73.6150177,99.1427575 73.7040843,99.0817454 73.8272134,99.0597634 C73.9501974,99.0374818 74.0702295,99.0582178 74.1877322,99.1223979 Z M68.1386127,96.0598406 L72.0545993,98.097294 C72.1199013,98.1324551 72.1619504,98.1853646 72.180707,98.2560122 C72.199534,98.3267381 72.1878014,98.3977452 72.1453377,98.4688356 C72.1027169,98.5397372 72.0436919,98.5864692 71.968315,98.6090565 C71.8928541,98.6314864 71.8221176,98.6245998 71.7562611,98.5885851 L67.8110906,96.496659 C67.7521691,96.4667563 67.7161846,96.4178349 67.7031113,96.3499008 C67.6900935,96.2820724 67.7055948,96.2194 67.7495002,96.161679 C67.7933063,96.1037934 67.8544818,96.0651447 67.9330604,96.0457345 C68.0115811,96.0261634 68.0800617,96.0308012 68.1386127,96.0598406 Z M67.0921008,97.3996878 L73.7881338,101.140878 C73.9481329,101.232157 73.9978714,101.346552 73.9364054,101.483352 L73.0948566,102.810318 C72.7725685,103.278231 72.3331694,103.543737 71.7812699,103.608901 C71.2280375,103.667746 70.5651033,103.454724 69.8072504,102.982154 C68.6453566,102.255747 68.2780658,101.525335 68.6653094,100.760149 L64.9794784,99.9551609 C64.933648,99.9508931 64.886285,99.9337013 64.8374288,99.9036514 C64.7581904,99.8549495 64.7095969,99.7894652 64.6915707,99.7072189 C64.6736305,99.6251622 64.6912801,99.5589155 64.7443959,99.5081898 C64.8125695,99.4426876 64.9845279,99.4422103 65.2611646,99.5068527 L68.9547489,100.266811 L69.6156288,99.419274 L66.7422438,97.813607 C66.6703774,97.7744562 66.6314068,97.7229803 66.6252504,97.6591301 C66.6191258,97.5953537 66.6391729,97.5366465 66.685302,97.4828272 C66.7348799,97.4246833 66.7971933,97.3868166 66.8722913,97.3692497 C66.947348,97.3515231 67.0205727,97.3615948 67.0921008,97.3996878 Z M70.1765803,99.7394076 L69.4746428,100.661111 C68.9407829,101.313077 69.1493525,101.926769 70.1336191,102.53241 C71.1348625,103.147391 71.9083819,103.115825 72.4167553,102.408149 L73.079012,101.410946 L70.1765803,99.7394076 Z M64.1542586,100.447294 L71.1002437,104.90145 C71.1920328,104.959546 71.2464227,105.024132 71.263258,105.095158 C71.2801553,105.166249 71.2664743,105.228029 71.2220887,105.280349 L69.1452746,107.467306 C69.0434656,107.562905 68.8786553,107.531977 68.6524501,107.375542 C68.5516167,107.305661 68.4779485,107.233154 68.4313117,107.158019 C68.3848486,107.083036 68.3861934,107.023166 68.435154,106.97819 L70.3206155,105.064218 L67.3484991,103.130952 L66.4239294,104.010951 C66.3760689,104.054338 66.3098506,104.067598 66.2253925,104.050782 C66.141025,104.033891 66.0543716,103.994761 65.9655662,103.933562 C65.7819903,103.806955 65.7407013,103.699984 65.8406173,103.611683 L66.7673387,102.749804 L64.0911366,100.994384 L62.177258,102.512792 C62.1326309,102.544913 62.0685033,102.550933 61.9849831,102.530874 C61.9015806,102.510727 61.8203294,102.471549 61.7413071,102.413524 C61.5597976,102.280224 61.5200764,102.178755 61.6211653,102.108017 L63.7423346,100.44895 C63.789007,100.408425 63.8510183,100.386417 63.9284263,100.382922 C64.0058577,100.379279 64.0810986,100.400665 64.1542586,100.447294 Z M61.1036151,102.782654 L68.1092192,107.953734 C68.1873131,108.008969 68.2361128,108.071459 68.2555135,108.141197 C68.2749871,108.211015 68.2575173,108.269547 68.2029774,108.31661 L67.0691337,109.241621 C66.6547169,109.555836 66.118353,109.646937 65.4673159,109.516915 C64.8219526,109.380676 64.0928497,108.982607 63.2951655,108.335462 L60.2445082,105.769055 C59.5585925,105.17299 59.1884172,104.682066 59.1199412,104.291251 C59.0529026,103.905074 59.2155897,103.607789 59.6065949,103.38912 L60.6948683,102.730102 C60.7479241,102.696025 60.8141934,102.684856 60.8937686,102.696618 C60.9734379,102.708243 61.0433757,102.736865 61.1036151,102.782654 Z M61.0248584,103.29827 L60.1514306,103.835369 C59.8694316,103.998558 59.7657406,104.21898 59.841483,104.502086 C59.9183195,104.787825 60.1909524,105.130872 60.6656427,105.533248 L63.7303099,108.058048 C64.2804748,108.497106 64.7836947,108.773867 65.2331953,108.882433 C65.6857474,108.988296 66.0617633,108.931844 66.3574803,108.71169 L67.2633529,107.997949 L61.0248584,103.29827 Z" id="UNiNSPiRED" fill="#000000" fill-rule="evenodd"></path>
            </g>
        </g>
    </g>
</svg>