<?xml version="1.0" encoding="UTF-8"?>
<svg width="658px" height="208px" viewBox="0 0 658 208" version="1.1" xmlns="http://www.w3.org/2000/svg" xmlns:xlink="http://www.w3.org/1999/xlink" style="background: #000000;">
    <!-- Generator: Sketch 43.1 (39012) - http://www.bohemiancoding.com/sketch -->
    <title>Eyes</title>
    <desc>Created with Sketch.</desc>
    <defs></defs>
    <g id="Page-1" stroke="none" stroke-width="1" fill="none" fill-rule="evenodd">
        <g id="Eyes">
            <g id="eye-one" transform="translate(56.000000, 36.000000)">
                <g id="eyeblack">
                    <text id="x" font-family="AmericanTypewriter, American Typewriter" font-size="37" font-weight="normal" fill="#FFFFFF">
                        <tspan x="78" y="82">x</tspan>
                    </text>
                    <circle id="Oval" stroke="#FFFFFF" stroke-width="4" cx="55" cy="72" r="55"></circle>
                    <path d="M63,45.5127711 L90.6187799,17" id="Line" stroke="#FFFFFF" stroke-width="2" stroke-linecap="round"></path>
                    <path d="M52,38.1415144 L63,0" id="Line" stroke="#FFFFFF" stroke-width="2" stroke-linecap="round"></path>
                    <circle id="Oval-Copy" stroke="#FFFFFF" stroke-width="3" cx="36.2083333" cy="72.4583333" r="36.2083333"></circle>
                    <path d="M35,35.5 L35,7.5" id="Line" stroke="#FFFFFF" stroke-width="2" stroke-linecap="round"></path>
                </g>
            </g>
            <g id="eye-2" transform="translate(201.000000, 36.000000)">
                <circle id="Oval" stroke="#FFFFFF" stroke-width="4" cx="55" cy="72" r="55"></circle>
                <path d="M63,45.5127711 L90.6187799,17" id="Line" stroke="#FFFFFF" stroke-width="2" stroke-linecap="round"></path>
                <path d="M52,38.1415144 L63,0" id="Line" stroke="#FFFFFF" stroke-width="2" stroke-linecap="round"></path>
                <circle id="Oval-Copy" stroke="#FFFFFF" stroke-width="3" cx="36.2083333" cy="72.4583333" r="36.2083333"></circle>
                <ellipse id="Oval-Copy-2" stroke="#FFFFFF" stroke-width="1" cx="48.5" cy="61.5" rx="9.5" ry="9.5"></ellipse>
                <ellipse id="Oval-Copy-3" stroke="#FFFFFF" stroke-width="1" cx="58" cy="74" rx="4" ry="4"></ellipse>
                <ellipse id="Oval-Copy-4" stroke="#FFFFFF" stroke-width="1" cx="50" cy="77" rx="2" ry="2"></ellipse>
                <path d="M35,35.5 L35,7.5" id="Line" stroke="#FFFFFF" stroke-width="2" stroke-linecap="round"></path>
                <path d="M77.292639,60.0108058 L88.8340064,54.1478404 C89.1846575,53.9276886 89.3631575,53.9448152 89.3701607,54.2017993 C89.3765285,54.4601126 89.2037774,54.6960067 88.8513474,54.9069617 L77.3029405,60.5121098 C76.085485,60.9827722 75.1676782,61.4151183 74.553666,61.8135858 C73.9399675,62.2014313 73.6390552,62.550522 73.6488592,62.8730931 C73.6564275,63.2014876 73.9671491,63.3679425 74.580247,63.3728439 C75.1900983,63.3841083 76.0946106,63.2115492 77.2943573,62.8398301 L88.8558451,58.3542959 C89.2150743,58.1834722 89.3923434,58.2355049 89.3877596,58.5126203 C89.3823572,58.7908912 89.1993957,59.0119283 88.8388538,59.1735745 L77.2791736,63.4042321 C75.5325401,63.9098374 74.2534313,64.1131668 73.4393909,64.0462985 C72.6185566,63.9937488 72.1986808,63.7537915 72.1817697,63.3240872 C72.1606349,62.9054956 72.5576001,62.4408001 73.377231,61.9071474 C74.1982005,61.3537632 75.5066802,60.7257608 77.292639,60.0108058 Z M72.9667581,65.7380003 L88.7501709,61.0691117 C89.1284587,60.9223172 89.3111375,60.9918118 89.2980422,61.2796786 C89.2861974,61.5247368 88.9259004,61.8796909 88.2151792,62.3338831 L75.7168311,68.258778 L88.4424348,65.7422971 C88.8093919,65.6499023 88.9783521,65.7542772 88.9486258,66.0569539 C88.9177599,66.3604139 88.7183116,66.5546215 88.3510421,66.6381264 L72.7814248,69.2529593 C72.6011876,69.2743939 72.4608988,69.262086 72.3603533,69.2164666 C72.2596426,69.171241 72.212008,69.1113688 72.2174917,69.0366778 C72.2277366,68.8935098 72.5232486,68.729957 73.105877,68.5415494 L85.7999285,62.9129016 L72.953056,66.2610588 C72.7670168,66.2992955 72.6204941,66.3029939 72.5133307,66.2726438 C72.4060019,66.2426879 72.3530122,66.1940749 72.3544152,66.1266486 C72.355823,66.0542461 72.4113862,65.9819944 72.5212459,65.9094696 C72.6311835,65.8365998 72.7796988,65.7794256 72.9667581,65.7380003 Z M86.953739,68.5768675 C87.21396,68.5320685 87.4282669,68.5522347 87.5964984,68.6384783 C87.764534,68.7257032 87.8368317,68.8568512 87.813237,69.0313497 C87.7905092,69.1968593 87.6791486,69.3513748 87.4793382,69.4938395 C87.2794186,69.6350838 87.0494473,69.7238294 86.7895461,69.760646 C86.5297189,69.7970089 86.3125112,69.7726054 86.1377107,69.6884772 C85.9627124,69.6052858 85.8864548,69.4851822 85.9088269,69.3276123 C85.9320714,69.1615089 86.046926,69.006782 86.2536151,68.8622916 C86.4602105,68.7165083 86.6935485,68.6211667 86.953739,68.5768675 Z M72.665423,70.5010413 L82.212205,69.4616213 C82.3644532,69.4409479 82.4888882,69.4590628 82.5854008,69.5163712 C82.6818012,69.5740712 82.721936,69.659298 82.7057515,69.7718629 C82.6893816,69.8845639 82.6222886,69.98581 82.5046083,70.0751768 C82.3869274,70.1641109 82.25218,70.2172481 82.1003975,70.2348108 L72.6009663,71.0983511 C72.4538058,71.1084513 72.3248133,71.0868603 72.2137818,71.0339685 C72.1025729,70.9815016 72.0510078,70.9161499 72.05913,70.8377073 C72.0671355,70.7594172 72.1330204,70.6871409 72.2569886,70.6204897 C72.3811079,70.5534742 72.517267,70.5135933 72.665423,70.5010413 Z M72.4401816,72.4033264 L87.6806168,71.3967799 C88.062532,71.3568104 88.2275658,71.4934812 88.174509,71.8077979 C88.1284053,72.0748364 87.7337665,72.3518097 86.9920803,72.6308414 L74.542546,76.0282265 L86.6896856,76.4394324 C87.0513529,76.4450179 87.1944448,76.6070128 87.1173746,76.9258321 C87.0386989,77.2447401 86.8184337,77.397671 86.4582175,77.3842984 L71.7443882,76.5594134 C71.5795749,76.5476592 71.4559445,76.50461 71.3731865,76.4305559 C71.290224,76.3568607 71.2570496,76.276682 71.273704,76.1898276 C71.305317,76.0231002 71.5954058,75.8913577 72.147024,75.7917215 L84.6259832,72.5396521 L72.3524556,73.0355229 C72.179856,73.0385664 72.0478226,73.0090505 71.9560942,72.9473332 C71.8641861,72.8859977 71.8237208,72.8144916 71.834736,72.7326289 C71.846456,72.6446224 71.9066932,72.5694391 72.0156611,72.5067454 C72.124763,72.443768 72.2662629,72.4092515 72.4401816,72.4033264 Z M73.0311176,77.8596034 C73.1954062,77.8756112 73.3551931,77.9260898 73.5101917,78.0114727 C73.6650117,78.0974172 73.7325413,78.1806065 73.7128233,78.2606608 C73.6984046,78.3189151 73.5914069,78.3822066 73.3922665,78.4500301 L72.7264661,78.6855887 C72.483906,78.7672058 72.2501088,78.9131007 72.024685,79.1230303 C71.7995981,79.3317093 71.6478005,79.5881583 71.5675929,79.8938671 C71.430928,80.4001836 71.551595,80.8332007 71.9306651,81.196259 C72.3057763,81.5655475 72.9274947,81.8346963 73.8044097,82.0000379 C74.3975319,82.1118077 74.9281166,82.13533 75.3958921,82.0685416 C75.8665699,81.999511 76.2558428,81.8691198 76.5621644,81.6775282 C76.880313,81.4941036 77.182221,81.2718465 77.467222,81.0107399 L78.3219419,80.2139335 C78.606661,79.9437376 78.9210388,79.7066711 79.2658014,79.5024213 C79.6113463,79.2953835 80.06019,79.1389557 80.6138017,79.0324738 C81.1700362,78.9221961 81.804189,78.8971034 82.5166548,78.9595799 C83.2760436,79.0250679 83.9069433,79.1697654 84.4067419,79.3972328 C84.9063949,79.6285857 85.2505479,79.9145942 85.4375569,80.2550165 C85.6221879,80.5989939 85.7248207,80.9446993 85.7454788,81.2906339 C85.7637263,81.6380492 85.7116518,81.9951597 85.5892633,82.3605855 C85.3876766,82.946247 85.0659465,83.4730588 84.6270416,83.9372298 C84.1858123,84.3950996 83.7791987,84.5848506 83.4096598,84.5112792 C83.2394572,84.4773715 83.0809999,84.4036755 82.9340015,84.2905845 C82.786852,84.1780511 82.7339737,84.067202 82.7752984,83.9575788 C82.7958713,83.9027489 82.9025272,83.8102464 83.0953615,83.6793809 C83.288253,83.5475799 83.5038417,83.3524085 83.7415582,83.0931831 C83.978546,82.8321034 84.1598553,82.5187382 84.2841826,82.1541801 C84.479816,81.5645381 84.439381,81.0528857 84.1647522,80.62435 C83.8863241,80.201923 83.2935783,79.9456558 82.3930577,79.8502666 C81.7714789,79.7836308 81.2215312,79.8337307 80.7427563,79.9978871 C80.265917,80.1581852 79.8882298,80.3819998 79.6078438,80.6703824 C79.3270241,80.9563978 79.0027919,81.2599238 78.6354195,81.5799362 C78.2680615,81.8962743 77.8920411,82.1812809 77.5079777,82.4350942 C77.1248673,82.6855155 76.5991875,82.8505667 75.9344217,82.9295913 C75.2754181,83.0045484 74.5211073,82.9524961 73.6723749,82.7774866 C72.3419969,82.5032656 71.4209955,82.0926229 70.8892965,81.5522235 C70.3489319,81.0246821 70.1665226,80.4270341 70.3412389,79.7523723 C70.4899257,79.1507005 70.8573018,78.6795837 71.4528854,78.3308698 C72.0535214,77.9745362 72.5804087,77.8155055 73.0311176,77.8596034 Z M69.9540302,83.3614438 L83.3764946,86.5679891 C83.6849758,86.6421148 83.7965796,86.8138955 83.7094991,87.0830166 L82.4940723,89.6372228 C82.0459871,90.4923563 81.3374931,91.0542498 80.3885664,91.3200067 C79.4488968,91.5739709 78.2850175,91.4438439 76.9067719,90.9462456 L76.7205969,90.8792362 C75.3682508,90.3939843 74.5097635,89.8201583 74.1189452,89.1568371 C73.7162669,88.5033361 73.6861141,87.808651 74.026886,87.0629513 L74.751895,85.3587071 L69.7140438,84.0729306 C69.5691913,84.0362146 69.4669003,83.9714125 69.4067625,83.8786659 C69.3463399,83.7861913 69.3314448,83.6937456 69.362143,83.6011441 C69.3949848,83.5014538 69.4649046,83.4280292 69.5722385,83.3807052 C69.6797915,83.3331996 69.8070457,83.3267156 69.9540302,83.3614438 Z M75.8523155,85.641629 L75.0945032,87.3800173 C74.8410972,87.9241406 74.8752246,88.4181024 75.1986292,88.8672143 C75.5170133,89.3215086 76.1518802,89.7126118 77.1153434,90.0403923 L77.342158,90.1177286 C79.2815272,90.7816081 80.6122641,90.4967563 81.2726661,89.2350956 L82.203793,87.2857048 L75.8523155,85.641629 Z M78.8323341,92.9422575 C79.0461448,93.0252367 79.1938025,93.1516909 79.2743585,93.3217571 C79.3541939,93.492284 79.3410777,93.6587737 79.234979,93.8205548 C79.1337571,93.9734065 78.972685,94.0720162 78.7527152,94.1163077 C78.5333358,94.1600931 78.3191238,94.1384233 78.1100483,94.0519051 C77.9015346,93.9656971 77.7556619,93.8393739 77.6714822,93.6730341 C77.5866098,93.5071445 77.592396,93.3498293 77.6888654,93.2004729 C77.789984,93.0424318 77.951935,92.9394487 78.175749,92.891411 C78.4001985,92.8428269 78.6190773,92.8595654 78.8323341,92.9422575 Z M67.7629826,88.9116193 L74.9505974,91.6394415 C75.0699811,91.6854792 75.1501457,91.7607394 75.190708,91.8652743 C75.2309458,91.9699718 75.2169343,92.0784723 75.1486451,92.190531 C75.0799922,92.3024187 74.9806693,92.3796087 74.8511093,92.422072 C74.721767,92.4643225 74.5984727,92.4616295 74.4812029,92.4142281 L67.430054,89.6092715 C67.3250006,89.5681478 67.2477967,89.4956002 67.1980132,89.3917108 C67.1478487,89.2880272 67.1443914,89.1900552 67.1877511,89.0976081 C67.230878,89.0051244 67.310455,88.9410734 67.4269079,88.9053809 C67.5436921,88.8695546 67.655752,88.8715782 67.7629826,88.9116193 Z M66.672564,91.0916798 L77.915099,96.0601188 C78.1796089,96.1800765 78.2455983,96.3483858 78.1111188,96.5640002 L76.3384361,98.6745581 C75.6495571,99.4152862 74.8280242,99.8633486 73.8987594,100.026228 C72.9805445,100.182232 71.9943249,99.9523321 70.9480533,99.3526717 C69.3383438,98.4347508 68.9032888,97.3776931 69.5498793,96.1356218 L64.2504277,95.5377952 C64.1887675,95.5409977 64.1242608,95.5237061 64.0568962,95.4859717 C63.94768,95.4248067 63.8776162,95.3294877 63.8459148,95.1999375 C63.8134766,95.0704821 63.8291622,94.9587623 63.8932819,94.864596 C63.9752517,94.7433219 64.2047808,94.7062855 64.5860512,94.7541681 L70.0014203,95.3294857 L70.999244,93.9307345 L66.2905339,91.7898362 C66.1731909,91.7370352 66.0998698,91.6602679 66.070066,91.5595113 C66.0398626,91.4588758 66.0492352,91.363021 66.0982959,91.2718017 C66.1508524,91.1734915 66.2293998,91.1059948 66.3343657,91.0692908 C66.4396098,91.0324849 66.5523435,91.0398864 66.672564,91.0916798 Z M71.9182139,94.3537723 L70.8031559,95.8651436 C69.9315803,96.9464537 70.1686832,97.8544331 71.5773435,98.6291307 C73.0045416,99.4185734 74.2714828,99.274378 75.3099861,98.1473083 L76.6400355,96.5553599 L71.9182139,94.3537723 Z M63.1771823,96.5285027 L72.248498,102.005495 C72.3673118,102.078273 72.422457,102.164879 72.4133657,102.265092 C72.4038041,102.365219 72.3492843,102.455391 72.2498853,102.535442 L67.4503627,105.757278 C67.2072686,105.890821 66.9699043,105.870288 66.7407484,105.697834 C66.6385541,105.620929 66.5814179,105.537276 66.5688167,105.446648 C66.5558491,105.355969 66.6056998,105.27827 66.7183627,105.213318 L70.9222506,102.337156 L67.1794804,99.9841679 L65.4958612,101.469139 C65.4068066,101.542291 65.304521,101.575576 65.1895405,101.569222 C65.0749592,101.562919 64.9673704,101.524973 64.8667094,101.455511 C64.6586562,101.311947 64.6451596,101.164585 64.8241816,101.011939 L66.4450126,99.5251773 L63.071536,97.4247878 L60.2735704,100.405239 C60.2043319,100.470245 60.1197954,100.50223 60.0204824,100.501386 C59.9216329,100.500634 59.8330473,100.470109 59.7545945,100.409883 C59.5746646,100.271621 59.5607997,100.128833 59.7109499,99.9801812 L62.6450416,96.6389503 C62.705176,96.5606262 62.7848811,96.5084347 62.8845823,96.4824466 C62.9846003,96.4564286 63.0821462,96.471732 63.1771823,96.5285027 Z M58.7901796,101.219014 L65.3653921,106.485837 C65.4391966,106.544198 65.4590433,106.614731 65.4243895,106.697162 C65.3892021,106.779366 65.3047035,106.851644 65.1709467,106.913824 L62.3376503,108.08036 C61.2763644,108.448645 60.2653024,108.58779 59.3376739,108.519884 C58.4292505,108.455167 57.722969,108.15741 57.2200477,107.635165 L55.3536575,105.620311 C54.9511815,105.164188 54.8988664,104.706986 55.1628944,104.230637 C55.4020092,103.743514 55.8539732,103.254389 56.5232918,102.760046 L58.2974274,101.306288 C58.3807172,101.232521 58.4695466,101.188128 58.564458,101.173321 C58.6597595,101.158567 58.7350541,101.173782 58.7901796,101.219014 Z M58.4231496,102.018654 L56.929808,103.150681 C56.4299307,103.499269 56.1141836,103.844998 55.9813613,104.190429 C55.8370725,104.531263 55.9103608,104.859673 56.217002,105.183872 L58.2597427,107.265138 C58.6348537,107.636031 59.126684,107.849683 59.7351662,107.902323 C60.3536277,107.957071 61.0378202,107.852823 61.7708463,107.578328 L63.9707271,106.643322 L58.4231496,102.018654 Z" id="UNiNSPiRED" fill="#FFFFFF" fill-rule="evenodd"></path>
            </g>
            <g id="eye-3" transform="translate(346.000000, 36.000000)">
                <circle id="Oval" stroke="#FFFFFF" stroke-width="4" cx="55" cy="72" r="55"></circle>
                <path d="M63,45.5127711 L90.6187799,17" id="Line" stroke="#FFFFFF" stroke-width="2" stroke-linecap="round"></path>
                <path d="M52,38.1415144 L63,0" id="Line" stroke="#FFFFFF" stroke-width="2" stroke-linecap="round"></path>
                <circle id="Oval-Copy" stroke="#FFFFFF" stroke-width="3" cx="36.2083333" cy="72.4583333" r="36.2083333"></circle>
                <ellipse id="Oval-Copy-2" stroke="#FFFFFF" stroke-width="1" cx="48.5" cy="61.5" rx="9.5" ry="9.5"></ellipse>
                <ellipse id="Oval-Copy-3" stroke="#FFFFFF" stroke-width="1" cx="58" cy="74" rx="4" ry="4"></ellipse>
                <ellipse id="Oval-Copy-4" stroke="#FFFFFF" stroke-width="1" cx="50" cy="77" rx="2" ry="2"></ellipse>
                <path d="M35,35.5 L35,7.5" id="Line" stroke="#FFFFFF" stroke-width="2" stroke-linecap="round"></path>
                <path d="M77.9474084,57.1757207 L92.1336227,43.8349871 C92.5557398,43.3627598 92.7693494,43.2679607 92.7761219,43.55223 C92.7828915,43.8366202 92.5752316,44.208838 92.151528,44.667293 L77.9497711,57.6191411 C76.4145068,58.7571238 75.24979,59.6629961 74.4642634,60.3482542 C73.676409,61.012082 73.2845907,61.4574469 73.2903662,61.7009154 C73.2961031,61.9452724 73.6952131,61.8956411 74.4849181,61.5539707 C75.2708756,61.2161346 76.4312931,60.5652754 77.959931,59.5744355 L92.2294663,48.3121079 C92.6599916,47.9134901 92.877924,47.8565586 92.8846386,48.1427292 C92.8913486,48.4290149 92.679332,48.7653235 92.2472673,49.1502897 L77.9622284,60.027166 C75.7278325,61.4149429 74.0750953,62.2814191 73.0171276,62.6836402 C71.952423,63.0953134 71.4120089,63.1526419 71.4008779,62.8504965 C71.389645,62.5500509 71.9155942,61.974685 72.9766761,61.0928614 C74.0344137,60.1699675 75.6979145,58.8743353 77.9474084,57.1757207 Z M72.445995,64.0903228 L92.2600748,51.0685392 C92.7137964,50.6996163 92.9433379,50.6581052 92.9500037,50.9453849 C92.9556551,51.1892248 92.5427957,51.7423519 91.7061917,52.5910303 L76.3327771,64.3016874 L92.3820725,55.5853999 C92.8255828,55.3038913 93.0501548,55.307132 93.0567172,55.5961648 C93.0632722,55.8853029 92.8445057,56.1644013 92.3995388,56.4324691 L72.5037136,66.3125119 C72.26084,66.4075206 72.0679746,66.4648928 71.9251534,66.485319 C71.7822285,66.5061239 71.7100611,66.4944472 71.7087258,66.4500296 C71.7061536,66.3646992 72.0895671,66.133809 72.8580991,65.748804 L88.7548428,54.5526723 L72.4552671,64.4338154 C72.210176,64.55403 72.0154979,64.6317367 71.8712903,64.6677065 C71.7269609,64.7040024 71.6540512,64.7006938 71.6526491,64.6575618 C71.6511373,64.6111472 71.721604,64.5366652 71.864037,64.4335263 C72.0064475,64.3296385 72.2004793,64.2152323 72.445995,64.0903228 Z M90.9704825,58.8323159 C91.2901088,58.6633992 91.5632876,58.5729212 91.7903467,58.5624325 C92.0173212,58.5534075 92.132347,58.6301179 92.1354864,58.7914896 C92.1384587,58.944401 92.0283634,59.1308368 91.8048904,59.349326 C91.581012,59.5658814 91.3087193,59.7518956 90.9879487,59.908394 C90.6667063,60.0643129 90.3868748,60.1492156 90.1487157,60.1645981 C89.9104423,60.1813758 89.7903369,60.1200025 89.7884843,59.9794638 C89.7865285,59.8311574 89.9032315,59.646255 90.1382881,59.4231412 C90.372926,59.1979182 90.6503429,59.0006085 90.9704825,58.8323159 Z M72.5220572,67.0623435 L85.0746068,61.9107865 C85.2679463,61.8200703 85.4322998,61.7724338 85.5677514,61.7684728 C85.7031521,61.7650417 85.7710783,61.8103553 85.7715698,61.9040362 C85.7720619,61.9977438 85.704914,62.107104 85.5700473,62.2315029 C85.4350797,62.355107 85.2708565,62.4595735 85.0773361,62.5453102 L72.53052,67.4157185 C72.3291556,67.4828852 72.147388,67.5252772 71.9851959,67.5434609 C71.8228898,67.5620836 71.741046,67.5489714 71.7397467,67.5038202 C71.7384459,67.4587 71.8180828,67.3920705 71.9786546,67.3033197 C72.1392171,67.2137842 72.3203713,67.1333453 72.5220572,67.0623435 Z M72.5483782,68.1772263 L92.4611022,60.8626226 C92.9323591,60.6557476 93.1708492,60.6973593 93.1772563,60.9882862 C93.1826852,61.2352101 92.7531964,61.6420477 91.8857001,62.1971548 L76.3738261,69.4003523 L92.5804907,65.4489415 C93.0402222,65.3213816 93.2730151,65.4035655 93.2792555,65.6960228 C93.2854847,65.9885714 93.0582382,66.1923022 92.5971739,66.3067386 L72.6005848,70.5318514 C72.3621245,70.5729226 72.1728669,70.5867786 72.0328033,70.5739448 C71.8926735,70.5615959 71.8219805,70.5320185 71.8207712,70.4848725 C71.8184419,70.3942932 72.1947187,70.2432302 72.9494273,70.0256189 L88.8488845,63.1523596 L72.5567462,68.54158 C72.3162943,68.6076569 72.1254084,68.6416878 71.9841007,68.6442733 C71.8427096,68.6472956 71.7713517,68.626016 71.7700868,68.5801313 C71.768723,68.5307515 71.8378769,68.469321 71.977557,68.3953399 C72.117243,68.3207284 72.3075448,68.2479634 72.5483782,68.1772263 Z M74.8414397,70.8509543 C75.0787596,70.8160161 75.3211755,70.8009284 75.5686534,70.8064352 C75.8160234,70.8127753 75.9398773,70.8410329 75.940298,70.8905944 C75.9406039,70.9266522 75.8126347,70.9892859 75.556388,71.0773946 L74.6991113,71.3695932 C74.3838227,71.4710273 74.1036635,71.6025721 73.858713,71.763423 C73.6139261,71.9210684 73.4930158,72.0853774 73.4958436,72.2589863 C73.5004935,72.5463579 73.8535714,72.7495975 74.5545,72.8762261 C75.2546939,73.0139721 76.2631387,73.0615623 77.58018,73.0097425 C78.4646168,72.9743573 79.2161268,72.8948375 79.8348255,72.7674722 C80.4534905,72.6346102 80.9295794,72.4744103 81.2631329,72.2876495 C81.616288,72.100738 81.9300338,71.8885515 82.2043784,71.6511425 L83.0267962,70.9106558 C83.300674,70.654279 83.6283457,70.4093533 84.0097372,70.1752905 C84.3908341,69.9355799 84.928192,69.6982418 85.6214488,69.4618048 C86.3138213,69.2176502 87.1372527,69.008582 88.0914991,68.8387654 C89.1027178,68.656169 89.9727102,68.5745827 90.7024965,68.6007922 C91.4321465,68.6337593 91.9834712,68.7614612 92.3568741,68.983754 C92.7307394,69.2127343 93.0033209,69.4694451 93.1744686,69.7513079 C93.3458983,70.0364404 93.4352311,70.3497425 93.4422415,70.6888526 C93.4534575,71.2334446 93.2928834,71.7563395 92.959724,72.2497818 C92.6255093,72.7332021 92.202898,72.9787055 91.6926104,72.993684 C91.4570821,73.0005575 91.216116,72.9721852 90.9697733,72.9094168 C90.7235121,72.8477541 90.5997467,72.7684214 90.5984138,72.6705996 C90.597747,72.6216937 90.6895875,72.5237526 90.8738284,72.37549 C91.0579192,72.2255146 91.241003,72.0176538 91.4229905,71.7509097 C91.6046902,71.4811152 91.6927484,71.1804811 91.6873797,70.8513947 C91.6786816,70.3200784 91.4088221,69.9162401 90.8783566,69.6483258 C90.348547,69.3919657 89.4808903,69.3623124 88.2735564,69.5485911 C87.4351659,69.6760444 86.7332065,69.8684419 86.1677598,70.1210232 C85.601659,70.3658652 85.1917615,70.6255304 84.9383409,70.9022404 C84.6847117,71.1742616 84.3819609,71.4657127 84.0300116,71.7744774 C83.6778077,72.075807 83.3007978,72.3524373 82.8989986,72.6044874 C82.4970443,72.8493765 81.859185,73.0576765 80.9853874,73.2268837 C80.1115443,73.3858531 79.0362318,73.4732549 77.7594063,73.4963855 C75.7362159,73.5324822 74.2173504,73.4383851 73.2015892,73.2324141 C72.1841662,73.0496521 71.6703152,72.787193 71.6613775,72.4293754 C71.6533028,72.1098869 72.017458,71.8023344 72.7546285,71.4923816 C73.4926539,71.1642982 74.1885325,70.9461761 74.8414397,70.8509543 Z M72.6757597,74.284183 L92.7554563,74.746413 C93.1894894,74.7577897 93.4287158,74.8890542 93.4731304,75.140696 L93.5211893,77.6123778 C93.5373037,78.4553702 93.0406556,79.0485448 92.0303788,79.3699648 C91.0191566,79.6632271 89.4170679,79.5931268 87.2305646,79.188099 L86.9330217,79.1337134 C84.7554548,78.741505 83.1612678,78.2819576 82.1461557,77.7686974 C81.1327289,77.2853852 80.6258572,76.7824277 80.6244872,76.2386828 L80.6214098,75.0073674 L72.6831384,74.676941 C72.4483855,74.6682027 72.2621579,74.6418685 72.1244079,74.5983213 C71.9866246,74.555349 71.9171656,74.509247 71.9160534,74.459607 C71.9148544,74.4061821 71.9823748,74.3628654 72.1186508,74.3292723 C72.2549706,74.2952007 72.4406784,74.2800409 72.6757597,74.284183 Z M82.3014251,75.0850652 L82.3048453,76.4013882 C82.3059334,76.8171404 82.6806849,77.1860488 83.4297635,77.5185409 C84.1798236,77.8657181 85.3157074,78.1620334 86.8391274,78.4001875 L87.1957352,78.4565677 C90.2145789,78.9426073 91.7200496,78.5888395 91.7018626,77.3842032 L91.673812,75.5549279 L82.3014251,75.0850652 Z M91.3062964,80.9918153 C91.6468577,81.0676158 91.9383412,81.1880986 92.180769,81.3544025 C92.4234437,81.5224744 92.546206,81.6899997 92.548868,81.8556742 C92.5513853,82.0126518 92.4328177,82.1154856 92.1931594,82.1630949 C91.9534975,82.2092885 91.6628464,82.1880284 91.3213896,82.1005899 C90.9801883,82.0134491 90.6837213,81.8865817 90.4319747,81.7210936 C90.1804724,81.5573848 90.053994,81.4034971 90.0523534,81.2581148 C90.0506188,81.1046864 90.1740996,81.0040263 90.4228085,80.9549849 C90.6715226,80.9044382 90.9659598,80.9162714 91.3062964,80.9918153 Z M72.7319078,77.3884295 L85.155253,79.7971338 C85.3532489,79.8394412 85.5217532,79.9067246 85.6607586,79.9994043 C85.7998226,80.0927619 85.8696331,80.1888893 85.8701472,80.2872969 C85.870661,80.3857271 85.8016723,80.4521743 85.6631911,80.4861951 C85.5247268,80.519647 85.3563994,80.5126129 85.1582517,80.465617 L72.7388041,77.7883861 C72.5452148,77.7514496 72.3706589,77.6981699 72.2150831,77.6289685 C72.0594997,77.5605036 71.9811796,77.5008329 71.9801265,77.4494263 C71.9790724,77.3980494 72.0556019,77.3670465 72.2097739,77.3560521 C72.3640198,77.3445988 72.5380679,77.3552361 72.7319078,77.3884295 Z M72.7534092,78.649209 L92.9182367,84.2103083 C93.3636358,84.3475101 93.6087772,84.5350942 93.6533177,84.7730899 L93.694982,87.1683207 C93.7098844,88.0443647 93.2509045,88.5503894 92.3186544,88.6675958 C91.3873023,88.7607293 89.856007,88.3141161 87.7361135,87.3624395 C84.4171285,85.9082451 82.504053,84.599675 81.9689817,83.4190476 L73.3424582,81.4677523 C73.2467812,81.4502948 73.1222521,81.4136648 72.9688902,81.3580637 C72.7198142,81.2681289 72.494411,81.1621213 72.292582,81.0406356 C72.0907966,80.9204601 71.989378,80.8322371 71.9882917,80.7750098 C71.9868937,80.7014816 72.3206139,80.7431119 72.9905436,80.8992103 L81.7310139,82.6990469 L81.7280432,81.5362988 L72.7602779,79.0605766 C72.5289107,79.0021461 72.3454492,78.9357119 72.209808,78.8615236 C72.0741646,78.787992 72.0058271,78.7254091 72.0047952,78.673304 C72.0036829,78.6172237 72.0702207,78.5859856 72.2044624,78.5792764 C72.3387716,78.5721825 72.5217444,78.5953214 72.7534092,78.649209 Z M83.4143869,82.0428893 L83.4185068,83.3679509 C83.4215272,84.3456141 84.8222122,85.4042702 87.6405323,86.5756997 C90.4457376,87.7713673 91.8500422,87.7403696 91.8327334,86.4561245 L91.8087169,84.7120105 L83.4143869,82.0428893 Z M72.8073505,81.9936767 L92.9962149,91.2150307 C93.2430962,91.3389106 93.4341813,91.4749491 93.5693858,91.6234576 C93.704707,91.7726463 93.7732775,91.9018209 93.7750093,92.0104802 L93.8490392,96.8520531 C93.8523549,97.0790002 93.5515738,96.9968821 92.9479955,96.6072022 C92.6779866,96.4331913 92.4442581,96.2545421 92.2467122,96.0715639 C92.0493905,95.8894298 91.9502137,95.7469467 91.9490094,95.6434826 L91.898941,91.511545 L83.579047,87.2986757 L83.5837925,88.859919 C83.5840321,88.9396502 83.4998297,88.9550945 83.3312682,88.9060412 C83.162821,88.856726 82.949864,88.7616577 82.6925172,88.6214392 C82.1589286,88.331981 81.8923939,88.1098416 81.8919993,87.9532732 L81.8882694,86.4823783 L73.8180271,82.8383788 L73.8439982,85.0177346 C73.844587,85.0681245 73.7593308,85.0643393 73.5883315,85.0062591 C73.417471,84.9480415 73.2085286,84.8541646 72.9615691,84.7252567 C72.3925434,84.4304841 72.1075721,84.2315268 72.1057368,84.1256141 L72.0659329,81.8887249 C72.0650246,81.8390171 72.1309869,81.8217675 72.2638842,81.8367371 C72.396864,81.8514113 72.5779997,81.9035304 72.8073505,81.9936767 Z M72.8285816,85.2903955 L93.1209918,98.0030156 C93.329601,98.1445775 93.5076051,98.3033413 93.6549586,98.4796586 C93.8024598,98.6566947 93.8770979,98.8045328 93.878761,98.9226429 L93.9118704,101.336021 C93.9233135,102.200102 93.3898236,102.464692 92.3149433,102.114231 C91.2447986,101.744028 89.5735299,100.632711 87.3195627,98.8280162 L78.2743964,91.8883825 C76.1396309,90.3455998 74.5907194,89.1172104 73.6126029,88.1843585 C72.637892,87.2876885 72.1483219,86.6467718 72.1415316,86.2358437 L72.1223859,85.0954489 C72.1214418,85.0399148 72.1914992,85.0327355 72.3326418,85.0737316 C72.4738925,85.1145157 72.6391956,85.1865725 72.8285816,85.2903955 Z M73.8590077,86.3158104 L73.8701536,87.2978945 C73.8737179,87.615194 74.241423,88.0992685 74.974811,88.7634995 C75.7103495,89.446416 76.8073066,90.3007146 78.2722949,91.3332761 L87.3158811,98.0768692 C88.8687037,99.2840601 90.0411262,100.049509 90.8249715,100.350987 C91.6115205,100.643752 92.0027063,100.492643 91.9965001,99.9045616 L91.9766657,98.0768806 L73.8590077,86.3158104 Z" id="UNiNSPiRED" fill="#FFFFFF" fill-rule="evenodd"></path>
            </g>
            <g id="uninspired" transform="translate(491.000000, 36.000000)">
                <circle id="Oval" stroke="#FFFFFF" stroke-width="4" cx="55" cy="72" r="55"></circle>
                <path d="M63,45.5127711 L90.6187799,17" id="Line" stroke="#FFFFFF" stroke-width="2" stroke-linecap="round"></path>
                <path d="M52,38.1415144 L63,0" id="Line" stroke="#FFFFFF" stroke-width="2" stroke-linecap="round"></path>
                <circle id="Oval-Copy" stroke="#FFFFFF" stroke-width="3" cx="36.2083333" cy="72.4583333" r="36.2083333"></circle>
                <ellipse id="Oval-Copy-2" stroke="#FFFFFF" stroke-width="1" cx="48.5" cy="61.5" rx="9.5" ry="9.5"></ellipse>
                <ellipse id="Oval-Copy-3" stroke="#FFFFFF" stroke-width="1" cx="58" cy="74" rx="4" ry="4"></ellipse>
                <ellipse id="Oval-Copy-4" stroke="#FFFFFF" stroke-width="1" cx="50" cy="77" rx="2" ry="2"></ellipse>
                <path d="M35,35.5 L35,7.5" id="Line" stroke="#FFFFFF" stroke-width="2" stroke-linecap="round"></path>
                <path d="M75.9229212,66.8628238 L77.5972976,66.7081726 C77.6525609,66.7124525 77.7013772,66.8736891 77.7431096,67.1906604 C77.7841254,67.5065684 77.7752823,67.6607628 77.7172375,67.6544737 L75.9608127,67.7462183 C75.785657,67.7868666 75.6575266,67.9854263 75.5733129,68.3358028 C75.485042,68.6838476 75.4397438,69.1521036 75.4377375,69.7388802 C75.4320585,70.3210561 75.4762411,70.7589266 75.5745067,71.0578958 C75.6747242,71.359453 75.830365,71.5026712 76.04028,71.4899527 L78.1604475,71.6721647 C78.230878,71.6871996 78.2810808,71.845293 78.310276,72.1452327 C78.3386253,72.4441191 78.3157443,72.5844347 78.242432,72.5673994 L76.0380023,72.3224993 C75.719898,72.3336799 75.4949863,72.1135835 75.3652021,71.6563389 C75.2389532,71.2036128 75.1886313,70.5857487 75.2063456,69.7928019 C75.217083,68.9911366 75.2813587,68.321605 75.3978562,67.7865461 C75.5057315,67.2459042 75.67862,66.9335061 75.9229212,66.8628238 Z M75.1588486,74.1650695 L78.3938422,74.5523265 C78.4770148,74.5747474 78.5293546,74.7314132 78.5499848,75.0210813 C78.566774,75.266038 78.5022015,75.4698857 78.3550695,75.6329473 L75.4498527,78.3232954 L78.6010459,79.0923573 C78.6965612,79.1246456 78.7474118,79.2777897 78.7526116,79.5505909 C78.7568102,79.8223499 78.7092001,79.9404839 78.6107844,79.9061988 L74.6557553,78.971437 C74.6111446,78.9665925 74.5812652,78.9263998 74.5661431,78.8508044 C74.5510805,78.7752814 74.5505585,78.6900558 74.5644244,78.5949491 C74.5906842,78.4115959 74.6821082,78.2554124 74.8379497,78.1267411 L77.8015235,75.2501171 L75.1021522,74.9438883 C75.0639564,74.9444894 75.0368937,74.9060513 75.0210024,74.8285187 C75.0051733,74.7510583 75.0013502,74.6615392 75.0093815,74.5597826 C75.0178741,74.4500169 75.0357421,74.3572387 75.0629522,74.2814734 C75.0899546,74.2055571 75.121866,74.1666824 75.1588486,74.1650695 Z M78.2688148,81.3139202 C78.3415825,81.3395584 78.4025957,81.4133253 78.4519524,81.535193 C78.5016107,81.657302 78.5247927,81.7938464 78.5210147,81.9443907 C78.5171186,82.0866938 78.4869885,82.197163 78.4305441,82.2758373 C78.3736856,82.3542498 78.3073226,82.3794881 78.2318998,82.3519598 C78.1566578,82.3247126 78.0938734,82.252693 78.0436442,82.1358879 C77.993725,82.0193492 77.9722665,81.8910901 77.9788071,81.7506749 C77.9853796,81.6021232 78.0173931,81.4859418 78.0747666,81.4021735 C78.1316903,81.3181222 78.1962175,81.2885636 78.2688148,81.3139202 Z M74.4150136,80.4742738 L76.9624671,81.0463905 C77.00384,81.0585824 77.0364752,81.1034963 77.0604046,81.1811178 C77.0844226,81.2588166 77.0924231,81.3512349 77.0842036,81.4581771 C77.0758024,81.5649319 77.0537958,81.6497979 77.0181645,81.712805 C76.9823268,81.7756612 76.9430889,81.8004869 76.9006412,81.7874696 L74.2895929,81.1627299 C74.2494495,81.1560701 74.2200616,81.1151592 74.2014718,81.0399999 C74.1829618,80.9649449 74.1824267,80.8818739 74.199698,80.7905842 C74.2168245,80.6991325 74.2472768,80.6221463 74.2910072,80.5596306 C74.3345274,80.496962 74.3758046,80.468447 74.4150136,80.4742738 Z M73.9938966,82.6043707 L78.5060171,83.9821338 C78.6240068,84.0286422 78.6765316,84.1792461 78.662453,84.4327185 C78.6496682,84.6469723 78.5255131,84.8001586 78.2893826,84.8925673 L73.969642,86.3636613 L78.1403957,87.9405886 C78.2684656,87.9960415 78.3172946,88.1427352 78.2856773,88.3794835 C78.2529593,88.6151962 78.1706297,88.703725 78.0399077,88.6462623 L72.8713187,86.7163304 C72.8141419,86.6997045 72.77922,86.6556822 72.7665467,86.5842106 C72.753925,86.5128118 72.7609522,86.4367973 72.7874847,86.3559883 C72.8381145,86.2001302 72.9710671,86.086786 73.1860152,86.0162776 L77.551161,84.3874388 L73.8403946,83.2742918 C73.7887812,83.2631547 73.7560031,83.2209225 73.7420699,83.1475414 C73.7281923,83.0742329 73.7316753,82.9939406 73.7523693,82.906486 C73.7744937,82.8121228 73.8077155,82.7356955 73.8520215,82.6772289 C73.8961408,82.6186104 73.9433756,82.5942509 73.9938966,82.6043707 Z M73.070738,87.9248008 C73.1302638,87.9446289 73.1812499,87.9942868 73.2237935,88.0738733 C73.2665396,88.1537304 73.2765849,88.227649 73.2536996,88.2953413 C73.2369911,88.3444991 73.1832907,88.3944724 73.0924234,88.4451273 L72.7822559,88.6239892 C72.6683152,88.6863354 72.5431122,88.8035388 72.4059014,88.974715 C72.2672829,89.1443259 72.1468848,89.3542363 72.0446305,89.6042926 C71.8725431,90.0132816 71.8297254,90.3615055 71.9203378,90.6542371 C72.0125023,90.9491316 72.23992,91.1695124 72.6037156,91.3170277 C72.8498406,91.4185437 73.0820131,91.4523935 73.2987977,91.4168266 C73.5151335,91.3808819 73.7026242,91.2962031 73.8606348,91.1620373 C74.0206763,91.0348747 74.1768957,90.8773746 74.3288639,90.6890729 L74.7734669,90.1126641 C74.9178398,89.9166947 75.0681272,89.7488167 75.2246856,89.6094395 C75.3797584,89.4687011 75.5675463,89.3767798 75.7887398,89.3345168 C76.0093443,89.2920191 76.2513698,89.3261786 76.516752,89.4389034 C76.8006018,89.5610517 77.0330034,89.7342925 77.2140056,89.9583569 C77.3974461,90.1846472 77.52147,90.4352014 77.5846553,90.7086391 C77.6484204,90.9824501 77.6809742,91.2474343 77.6814941,91.5028964 C77.6814971,91.7577936 77.6529188,92.0117836 77.5950493,92.2642678 C77.4990939,92.6667001 77.3519053,93.015341 77.1529978,93.3098328 C76.9497241,93.6002931 76.7657767,93.7048235 76.6049686,93.6269315 C76.5310064,93.591197 76.4637675,93.5281282 76.4033552,93.4378169 C76.3432428,93.3477665 76.3247509,93.265112 76.34755,93.1895522 C76.3588969,93.1517208 76.4093044,93.0928008 76.4984327,93.0124665 C76.5870684,92.9316664 76.6873031,92.8072072 76.798476,92.6384632 C76.9082611,92.4684242 76.9953961,92.256082 77.059795,92.0013152 C77.1606245,91.5867106 77.1625343,91.2056908 77.0694687,90.8618117 C76.9776922,90.5189125 76.7583041,90.2706046 76.4129534,90.1189046 C76.1754285,90.0158569 75.9572903,90.0110225 75.7564197,90.1023365 C75.5543375,90.1926707 75.3835416,90.3406385 75.2434081,90.5455028 C75.1012661,90.7483973 74.9373166,90.9620483 74.7509534,91.1858516 C74.5618242,91.4068681 74.3693392,91.6037982 74.1739323,91.7770798 C73.976402,91.9481475 73.7231716,92.050219 73.4153515,92.0845429 C73.1069375,92.1183118 72.7706893,92.0567612 72.4094788,91.9033618 C71.8434765,91.6686423 71.4983139,91.3417804 71.3707908,90.9184738 C71.2463604,90.4997193 71.3095304,90.0208776 71.5525783,89.4717151 C71.76431,88.9714558 72.0310763,88.576537 72.3532505,88.2880647 C72.6698197,87.9938 72.9074163,87.8710002 73.070738,87.9248008 Z M70.5116298,92.2805161 L76.5355739,95.0611222 C76.6771496,95.131919 76.7264512,95.2572662 76.6825298,95.4363414 L76.0805262,97.0974184 C75.8585277,97.6465744 75.5000983,97.9856492 75.0087332,98.1168446 C74.5137083,98.2425237 73.8939196,98.1045738 73.1639082,97.7156252 L73.0655606,97.663466 C72.3527963,97.2874264 71.9221883,96.8731532 71.765841,96.4154739 C71.6133286,95.9623183 71.6758213,95.4899609 71.9451816,94.98847 L72.5306476,93.8159128 L70.2298915,92.7980196 C70.1636023,92.7702751 70.1256555,92.7225949 70.1160086,92.6549279 C70.1064043,92.5873341 70.1203423,92.5199117 70.1577005,92.4524811 C70.1977968,92.3796807 70.2504461,92.3261908 70.3156711,92.2920348 C70.3807825,92.257723 70.4460494,92.2538096 70.5116298,92.2805161 Z M73.0340166,94.0509445 L72.4611442,95.2395555 C72.2728097,95.6044676 72.2419792,95.9418892 72.3731414,96.2570448 C72.5065658,96.5747023 72.8190589,96.8610968 73.314132,97.118555 L73.4308911,97.1795447 C74.43306,97.7067017 75.1269305,97.5778541 75.4757579,96.7623276 L75.9696658,95.484904 L73.0340166,94.0509445 Z M74.1877322,99.1223979 C74.3056489,99.1868467 74.3884203,99.2771175 74.4359433,99.3931938 C74.483743,99.5095129 74.4810971,99.618925 74.4275523,99.7209921 C74.3765255,99.8173683 74.2905938,99.8752264 74.1698785,99.8945928 C74.0490391,99.9136817 73.9287013,99.8898214 73.8092753,99.8234203 C73.6902764,99.757287 73.6057656,99.6674824 73.5556411,99.5540034 C73.5058071,99.440792 73.5073633,99.337192 73.5598835,99.2427663 C73.6150177,99.1427575 73.7040843,99.0817454 73.8272134,99.0597634 C73.9501974,99.0374818 74.0702295,99.0582178 74.1877322,99.1223979 Z M68.1386127,96.0598406 L72.0545993,98.097294 C72.1199013,98.1324551 72.1619504,98.1853646 72.180707,98.2560122 C72.199534,98.3267381 72.1878014,98.3977452 72.1453377,98.4688356 C72.1027169,98.5397372 72.0436919,98.5864692 71.968315,98.6090565 C71.8928541,98.6314864 71.8221176,98.6245998 71.7562611,98.5885851 L67.8110906,96.496659 C67.7521691,96.4667563 67.7161846,96.4178349 67.7031113,96.3499008 C67.6900935,96.2820724 67.7055948,96.2194 67.7495002,96.161679 C67.7933063,96.1037934 67.8544818,96.0651447 67.9330604,96.0457345 C68.0115811,96.0261634 68.0800617,96.0308012 68.1386127,96.0598406 Z M67.0921008,97.3996878 L73.7881338,101.140878 C73.9481329,101.232157 73.9978714,101.346552 73.9364054,101.483352 L73.0948566,102.810318 C72.7725685,103.278231 72.3331694,103.543737 71.7812699,103.608901 C71.2280375,103.667746 70.5651033,103.454724 69.8072504,102.982154 C68.6453566,102.255747 68.2780658,101.525335 68.6653094,100.760149 L64.9794784,99.9551609 C64.933648,99.9508931 64.886285,99.9337013 64.8374288,99.9036514 C64.7581904,99.8549495 64.7095969,99.7894652 64.6915707,99.7072189 C64.6736305,99.6251622 64.6912801,99.5589155 64.7443959,99.5081898 C64.8125695,99.4426876 64.9845279,99.4422103 65.2611646,99.5068527 L68.9547489,100.266811 L69.6156288,99.419274 L66.7422438,97.813607 C66.6703774,97.7744562 66.6314068,97.7229803 66.6252504,97.6591301 C66.6191258,97.5953537 66.6391729,97.5366465 66.685302,97.4828272 C66.7348799,97.4246833 66.7971933,97.3868166 66.8722913,97.3692497 C66.947348,97.3515231 67.0205727,97.3615948 67.0921008,97.3996878 Z M70.1765803,99.7394076 L69.4746428,100.661111 C68.9407829,101.313077 69.1493525,101.926769 70.1336191,102.53241 C71.1348625,103.147391 71.9083819,103.115825 72.4167553,102.408149 L73.079012,101.410946 L70.1765803,99.7394076 Z M64.1542586,100.447294 L71.1002437,104.90145 C71.1920328,104.959546 71.2464227,105.024132 71.263258,105.095158 C71.2801553,105.166249 71.2664743,105.228029 71.2220887,105.280349 L69.1452746,107.467306 C69.0434656,107.562905 68.8786553,107.531977 68.6524501,107.375542 C68.5516167,107.305661 68.4779485,107.233154 68.4313117,107.158019 C68.3848486,107.083036 68.3861934,107.023166 68.435154,106.97819 L70.3206155,105.064218 L67.3484991,103.130952 L66.4239294,104.010951 C66.3760689,104.054338 66.3098506,104.067598 66.2253925,104.050782 C66.141025,104.033891 66.0543716,103.994761 65.9655662,103.933562 C65.7819903,103.806955 65.7407013,103.699984 65.8406173,103.611683 L66.7673387,102.749804 L64.0911366,100.994384 L62.177258,102.512792 C62.1326309,102.544913 62.0685033,102.550933 61.9849831,102.530874 C61.9015806,102.510727 61.8203294,102.471549 61.7413071,102.413524 C61.5597976,102.280224 61.5200764,102.178755 61.6211653,102.108017 L63.7423346,100.44895 C63.789007,100.408425 63.8510183,100.386417 63.9284263,100.382922 C64.0058577,100.379279 64.0810986,100.400665 64.1542586,100.447294 Z M61.1036151,102.782654 L68.1092192,107.953734 C68.1873131,108.008969 68.2361128,108.071459 68.2555135,108.141197 C68.2749871,108.211015 68.2575173,108.269547 68.2029774,108.31661 L67.0691337,109.241621 C66.6547169,109.555836 66.118353,109.646937 65.4673159,109.516915 C64.8219526,109.380676 64.0928497,108.982607 63.2951655,108.335462 L60.2445082,105.769055 C59.5585925,105.17299 59.1884172,104.682066 59.1199412,104.291251 C59.0529026,103.905074 59.2155897,103.607789 59.6065949,103.38912 L60.6948683,102.730102 C60.7479241,102.696025 60.8141934,102.684856 60.8937686,102.696618 C60.9734379,102.708243 61.0433757,102.736865 61.1036151,102.782654 Z M61.0248584,103.29827 L60.1514306,103.835369 C59.8694316,103.998558 59.7657406,104.21898 59.841483,104.502086 C59.9183195,104.787825 60.1909524,105.130872 60.6656427,105.533248 L63.7303099,108.058048 C64.2804748,108.497106 64.7836947,108.773867 65.2331953,108.882433 C65.6857474,108.988296 66.0617633,108.931844 66.3574803,108.71169 L67.2633529,107.997949 L61.0248584,103.29827 Z" id="UNiNSPiRED" fill="#FFFFFF" fill-rule="evenodd"></path>
            </g>
        </g>
    </g>
</svg>