<?xml version="1.0" encoding="UTF-8"?>
<svg width="404px" height="831px" viewBox="0 0 404 831" version="1.1" xmlns="http://www.w3.org/2000/svg" xmlns:xlink="http://www.w3.org/1999/xlink">
    <!-- Generator: Sketch 46 (44423) - http://www.bohemiancoding.com/sketch -->
    <title>hidden</title>
    <desc>Created with Sketch.</desc>
    <defs></defs>
    <g id="Eye-Image" stroke="none" stroke-width="1" fill="none" fill-rule="evenodd">
        <g id="Hidden" transform="translate(-508.000000, -167.000000)">
            <g id="hidden" transform="translate(426.000000, 5.000000)">
                <g id="bubbles-copy">
                    <g id="bubbles">
                        <g id="Bubbles" stroke="#000000">
                            <g id="BBubble" transform="translate(341.000000, 848.000000)">
                                <circle id="Bubble" stroke-width="2" cx="72.0429688" cy="72.0429688" r="71.9570312"></circle>
                                <rect id="1" stroke-width="3" transform="translate(108.876929, 38.764950) rotate(45.000000) translate(-108.876929, -38.764950) " x="101.151668" y="31.0396892" width="15.4505208" height="15.4505208"></rect>
                                <rect id="2" stroke-width="2" transform="translate(119.947241, 57.215470) rotate(45.000000) translate(-119.947241, -57.215470) " x="115.412085" y="52.6803142" width="9.0703125" height="9.0703125"></rect>
                                <rect id="3" transform="translate(120.869767, 72.898413) rotate(45.000000) translate(-120.869767, -72.898413) " x="118.602189" y="70.630835" width="4.53515625" height="4.53515625"></rect>
                            </g>
                            <g id="BBubble" transform="translate(307.000000, 163.000000)">
                                <circle id="Bubble" stroke-width="2" cx="72.0429688" cy="72.0429688" r="71.9570312"></circle>
                                <rect id="1" stroke-width="3" transform="translate(108.876929, 38.764950) rotate(45.000000) translate(-108.876929, -38.764950) " x="101.151668" y="31.0396892" width="15.4505208" height="15.4505208"></rect>
                                <rect id="2" stroke-width="2" transform="translate(119.947241, 57.215470) rotate(45.000000) translate(-119.947241, -57.215470) " x="115.412085" y="52.6803142" width="9.0703125" height="9.0703125"></rect>
                                <rect id="3" transform="translate(120.869767, 72.898413) rotate(45.000000) translate(-120.869767, -72.898413) " x="118.602189" y="70.630835" width="4.53515625" height="4.53515625"></rect>
                            </g>
                            <g id="Bubble" transform="translate(83.000000, 769.000000)">
                                <circle cx="17.6523438" cy="17.6523438" r="17.6523438"></circle>
                                <rect id="1" transform="translate(26.688371, 9.488652) rotate(45.000000) translate(-26.688371, -9.488652) " x="24.9252504" y="7.72553085" width="3.52624199" height="3.52624199"></rect>
                                <rect id="2" transform="translate(29.404117, 14.014894) rotate(45.000000) translate(-29.404117, -14.014894) " x="28.546244" y="13.1570212" width="1.71574519" height="1.71574519"></rect>
                                <rect id="3" transform="translate(29.630429, 17.862200) rotate(45.000000) translate(-29.630429, -17.862200) " x="29.4514924" y="17.6832632" width="1" height="1"></rect>
                            </g>
                            <g id="Bubble" transform="translate(426.000000, 540.000000)">
                                <circle cx="17.6523438" cy="17.6523438" r="17.6523438"></circle>
                                <rect id="1" transform="translate(26.688371, 9.488652) rotate(45.000000) translate(-26.688371, -9.488652) " x="24.9252504" y="7.72553085" width="3.52624199" height="3.52624199"></rect>
                                <rect id="2" transform="translate(29.404117, 14.014894) rotate(45.000000) translate(-29.404117, -14.014894) " x="28.546244" y="13.1570212" width="1.71574519" height="1.71574519"></rect>
                                <rect id="3" transform="translate(29.630429, 17.862200) rotate(45.000000) translate(-29.630429, -17.862200) " x="29.4514924" y="17.6832632" width="1" height="1"></rect>
                            </g>
                            <g id="Bubble" transform="translate(435.000000, 608.000000)">
                                <circle cx="17.6523438" cy="17.6523438" r="17.6523438"></circle>
                                <rect id="1" transform="translate(26.688371, 9.488652) rotate(45.000000) translate(-26.688371, -9.488652) " x="24.9252504" y="7.72553085" width="3.52624199" height="3.52624199"></rect>
                                <rect id="2" transform="translate(29.404117, 14.014894) rotate(45.000000) translate(-29.404117, -14.014894) " x="28.546244" y="13.1570212" width="1.71574519" height="1.71574519"></rect>
                                <rect id="3" transform="translate(29.630429, 17.862200) rotate(45.000000) translate(-29.630429, -17.862200) " x="29.4514924" y="17.6832632" width="1" height="1"></rect>
                            </g>
                            <g id="Bubble" transform="translate(400.000000, 637.000000)">
                                <circle cx="6.55067444" cy="6.55067444" r="6.55067444"></circle>
                                <rect id="1" transform="translate(9.903888, 3.521179) rotate(45.000000) translate(-9.903888, -3.521179) " x="9.56405777" y="3.18134934" width="1" height="1"></rect>
                                <rect id="2" transform="translate(10.911684, 5.200840) rotate(45.000000) translate(-10.911684, -5.200840) " x="10.9077859" y="5.19694147" width="1" height="1"></rect>
                                <rect id="3" transform="translate(10.995667, 6.628551) rotate(45.000000) translate(-10.995667, -6.628551) " x="11.2437179" y="6.87660159" width="1" height="1"></rect>
                            </g>
                            <g id="Bubble" transform="translate(441.000000, 829.000000)">
                                <circle cx="6.55067444" cy="6.55067444" r="6.55067444"></circle>
                                <rect id="1" transform="translate(9.903888, 3.521179) rotate(45.000000) translate(-9.903888, -3.521179) " x="9.56405777" y="3.18134934" width="1" height="1"></rect>
                                <rect id="2" transform="translate(10.911684, 5.200840) rotate(45.000000) translate(-10.911684, -5.200840) " x="10.9077859" y="5.19694147" width="1" height="1"></rect>
                                <rect id="3" transform="translate(10.995667, 6.628551) rotate(45.000000) translate(-10.995667, -6.628551) " x="11.2437179" y="6.87660159" width="1" height="1"></rect>
                            </g>
                            <g id="Bubble" transform="translate(354.000000, 793.000000)">
                                <circle cx="6.55067444" cy="6.55067444" r="6.55067444"></circle>
                                <rect id="1" transform="translate(9.903888, 3.521179) rotate(45.000000) translate(-9.903888, -3.521179) " x="9.56405777" y="3.18134934" width="1" height="1"></rect>
                                <rect id="2" transform="translate(10.911684, 5.200840) rotate(45.000000) translate(-10.911684, -5.200840) " x="10.9077859" y="5.19694147" width="1" height="1"></rect>
                                <rect id="3" transform="translate(10.995667, 6.628551) rotate(45.000000) translate(-10.995667, -6.628551) " x="11.2437179" y="6.87660159" width="1" height="1"></rect>
                            </g>
                            <g id="Bubble" transform="translate(125.000000, 813.000000)">
                                <circle cx="6.55067444" cy="6.55067444" r="6.55067444"></circle>
                                <rect id="1" transform="translate(9.903888, 3.521179) rotate(45.000000) translate(-9.903888, -3.521179) " x="9.56405777" y="3.18134934" width="1" height="1"></rect>
                                <rect id="2" transform="translate(10.911684, 5.200840) rotate(45.000000) translate(-10.911684, -5.200840) " x="10.9077859" y="5.19694147" width="1" height="1"></rect>
                                <rect id="3" transform="translate(10.995667, 6.628551) rotate(45.000000) translate(-10.995667, -6.628551) " x="11.2437179" y="6.87660159" width="1" height="1"></rect>
                            </g>
                            <g id="Bubble" transform="translate(130.000000, 758.000000)">
                                <circle cx="10.4322364" cy="10.4322364" r="10.4322364"></circle>
                                <rect id="1" transform="translate(15.772376, 5.607633) rotate(45.000000) translate(-15.772376, -5.607633) " x="14.9349095" y="4.77016643" width="1.6749324" height="1.6749324"></rect>
                                <rect id="2" transform="translate(17.377335, 8.282565) rotate(45.000000) translate(-17.377335, -8.282565) " x="17.0748555" y="7.9800853" width="1" height="1"></rect>
                                <rect id="3" transform="translate(17.511082, 10.556258) rotate(45.000000) translate(-17.511082, -10.556258) " x="17.6098419" y="10.6550177" width="1" height="1"></rect>
                            </g>
                            <g id="Bubble" transform="translate(411.000000, 588.000000)">
                                <circle cx="6.55067444" cy="6.55067444" r="6.55067444"></circle>
                                <rect id="1" transform="translate(9.903888, 3.521179) rotate(45.000000) translate(-9.903888, -3.521179) " x="9.56405777" y="3.18134934" width="1" height="1"></rect>
                                <rect id="2" transform="translate(10.911684, 5.200840) rotate(45.000000) translate(-10.911684, -5.200840) " x="10.9077859" y="5.19694147" width="1" height="1"></rect>
                                <rect id="3" transform="translate(10.995667, 6.628551) rotate(45.000000) translate(-10.995667, -6.628551) " x="11.2437179" y="6.87660159" width="1" height="1"></rect>
                            </g>
                            <g id="Hella-Bubbles-Copy" transform="translate(367.000000, 684.000000)">
                                <g id="Bubble" transform="translate(19.000000, 45.000000)">
                                    <circle cx="17.6523438" cy="17.6523438" r="17.6523438"></circle>
                                    <rect id="1" transform="translate(26.688371, 9.488652) rotate(45.000000) translate(-26.688371, -9.488652) " x="24.9252504" y="7.72553085" width="3.52624199" height="3.52624199"></rect>
                                    <rect id="2" transform="translate(29.404117, 14.014894) rotate(45.000000) translate(-29.404117, -14.014894) " x="28.546244" y="13.1570212" width="1.71574519" height="1.71574519"></rect>
                                    <rect id="3" transform="translate(29.630429, 17.862200) rotate(45.000000) translate(-29.630429, -17.862200) " x="29.4514924" y="17.6832632" width="1" height="1"></rect>
                                </g>
                                <g id="Bubble" transform="translate(0.000000, 74.000000)">
                                    <circle cx="6.6167558" cy="6.6167558" r="6.6167558"></circle>
                                    <rect id="1" transform="translate(10.003795, 3.556700) rotate(45.000000) translate(-10.003795, -3.556700) " x="9.65549344" y="3.20839804" width="1" height="1"></rect>
                                    <rect id="2" transform="translate(11.021758, 5.253304) rotate(45.000000) translate(-11.021758, -5.253304) " x="11.0127767" y="5.2443229" width="1" height="1"></rect>
                                    <rect id="3" transform="translate(11.106588, 6.695418) rotate(45.000000) translate(-11.106588, -6.695418) " x="11.3520975" y="6.94092695" width="1" height="1"></rect>
                                </g>
                                <g id="Bubble" transform="translate(6.000000, 62.000000)">
                                    <circle cx="6.55067444" cy="6.55067444" r="6.55067444"></circle>
                                    <rect id="1" transform="translate(9.903888, 3.521179) rotate(45.000000) translate(-9.903888, -3.521179) " x="9.56405777" y="3.18134934" width="1" height="1"></rect>
                                    <rect id="2" transform="translate(10.911684, 5.200840) rotate(45.000000) translate(-10.911684, -5.200840) " x="10.9077859" y="5.19694147" width="1" height="1"></rect>
                                    <rect id="3" transform="translate(10.995667, 6.628551) rotate(45.000000) translate(-10.995667, -6.628551) " x="11.2437179" y="6.87660159" width="1" height="1"></rect>
                                </g>
                                <g id="Bubble" transform="translate(31.000000, 32.000000)">
                                    <circle cx="6.55067444" cy="6.55067444" r="6.55067444"></circle>
                                    <rect id="1" transform="translate(9.903888, 3.521179) rotate(45.000000) translate(-9.903888, -3.521179) " x="9.56405777" y="3.18134934" width="1" height="1"></rect>
                                    <rect id="2" transform="translate(10.911684, 5.200840) rotate(45.000000) translate(-10.911684, -5.200840) " x="10.9077859" y="5.19694147" width="1" height="1"></rect>
                                    <rect id="3" transform="translate(10.995667, 6.628551) rotate(45.000000) translate(-10.995667, -6.628551) " x="11.2437179" y="6.87660159" width="1" height="1"></rect>
                                </g>
                                <g id="Bubble" transform="translate(56.000000, 42.000000)">
                                    <circle cx="6.55067444" cy="6.55067444" r="6.55067444"></circle>
                                    <rect id="1" transform="translate(9.903888, 3.521179) rotate(45.000000) translate(-9.903888, -3.521179) " x="9.56405777" y="3.18134934" width="1" height="1"></rect>
                                    <rect id="2" transform="translate(10.911684, 5.200840) rotate(45.000000) translate(-10.911684, -5.200840) " x="10.9077859" y="5.19694147" width="1" height="1"></rect>
                                    <rect id="3" transform="translate(10.995667, 6.628551) rotate(45.000000) translate(-10.995667, -6.628551) " x="11.2437179" y="6.87660159" width="1" height="1"></rect>
                                </g>
                                <g id="Bubble" transform="translate(43.000000, 16.000000)">
                                    <circle cx="6.55067444" cy="6.55067444" r="6.55067444"></circle>
                                    <rect id="1" transform="translate(9.903888, 3.521179) rotate(45.000000) translate(-9.903888, -3.521179) " x="9.56405777" y="3.18134934" width="1" height="1"></rect>
                                    <rect id="2" transform="translate(10.911684, 5.200840) rotate(45.000000) translate(-10.911684, -5.200840) " x="10.9077859" y="5.19694147" width="1" height="1"></rect>
                                    <rect id="3" transform="translate(10.995667, 6.628551) rotate(45.000000) translate(-10.995667, -6.628551) " x="11.2437179" y="6.87660159" width="1" height="1"></rect>
                                </g>
                                <g id="Bubble" transform="translate(13.000000, 74.000000)">
                                    <circle cx="6.55067444" cy="6.55067444" r="6.55067444"></circle>
                                    <rect id="1" transform="translate(9.903888, 3.521179) rotate(45.000000) translate(-9.903888, -3.521179) " x="9.56405777" y="3.18134934" width="1" height="1"></rect>
                                    <rect id="2" transform="translate(10.911684, 5.200840) rotate(45.000000) translate(-10.911684, -5.200840) " x="10.9077859" y="5.19694147" width="1" height="1"></rect>
                                    <rect id="3" transform="translate(10.995667, 6.628551) rotate(45.000000) translate(-10.995667, -6.628551) " x="11.2437179" y="6.87660159" width="1" height="1"></rect>
                                </g>
                                <circle id="Oval" cx="12.5" cy="88.5" r="3.5"></circle>
                                <circle id="Oval-Copy-2" cx="29.263916" cy="84.263916" r="4.26391602"></circle>
                                <circle id="Oval-Copy-10" cx="28.2993164" cy="95.2993164" r="6.29931641"></circle>
                                <circle id="Oval-Copy-11" stroke-width="2" cx="38.0799999" cy="91.0799999" r="3.07999992"></circle>
                                <circle id="Oval-Copy-12" cx="37.5" cy="97.5" r="2.5"></circle>
                                <circle id="Oval-Copy-13" cx="47.5" cy="87.5" r="2.5"></circle>
                                <circle id="Oval-Copy-14" cx="43.5" cy="89.5" r="1.5"></circle>
                                <circle id="Oval-Copy-23" cx="41" cy="95" r="1"></circle>
                                <circle id="Oval-Copy-24" cx="43" cy="93" r="1"></circle>
                                <circle id="Oval-Copy-25" cx="46.5" cy="91.5" r="1.5"></circle>
                                <circle id="Oval-Copy-26" cx="49" cy="91" r="1"></circle>
                                <circle id="Oval-Copy-15" cx="53.5" cy="83.5" r="1.5"></circle>
                                <circle id="Oval-Copy-16" cx="58" cy="89" r="5"></circle>
                                <circle id="Oval-Copy-17" cx="65.9189453" cy="85.9189453" r="2.91894531"></circle>
                                <circle id="Oval-Copy-18" cx="64.6450195" cy="90.6450195" r="1.64501953"></circle>
                                <circle id="Oval-Copy-19" cx="51" cy="85" r="1"></circle>
                                <circle id="Oval-Copy-20" cx="52" cy="87" r="1"></circle>
                                <circle id="Oval-Copy-21" cx="51.5" cy="89.5" r="1.5"></circle>
                                <circle id="Oval-Copy-22" stroke-width="2" cx="50" cy="103" r="10"></circle>
                                <circle id="Oval-Copy-7" stroke-width="2" cx="36.5" cy="83.5" r="2.5"></circle>
                                <circle id="Oval-Copy-4" stroke-width="3" cx="59.5" cy="75.5" r="7.5"></circle>
                                <circle id="Oval-Copy-5" cx="48" cy="81" r="4"></circle>
                                <circle id="Oval-Copy-31" cx="57" cy="65" r="2"></circle>
                                <circle id="Oval-Copy-33" stroke-width="2" cx="61" cy="61" r="3"></circle>
                                <circle id="Oval-Copy-32" cx="60" cy="66" r="1"></circle>
                                <circle id="Oval-Copy-34" cx="66" cy="59" r="1"></circle>
                                <circle id="Oval-Copy-35" cx="67.5" cy="62.5" r="2.5"></circle>
                                <circle id="Oval-Copy-36" cx="62.5" cy="65.5" r="1.5"></circle>
                                <circle id="Oval-Copy-37" stroke-width="2" cx="66.5" cy="68.5" r="2.5"></circle>
                                <circle id="Oval-Copy-27" cx="48" cy="31" r="2"></circle>
                                <circle id="Oval-Copy-28" stroke-width="2" cx="55.5" cy="33.5" r="5.5"></circle>
                                <circle id="Oval-Copy-29" cx="58.5" cy="25.5" r="2.5"></circle>
                                <circle id="Oval-Copy-30" cx="57.5" cy="21.5" r="1.5"></circle>
                                <circle id="Oval-Copy-6" cx="41.5" cy="82.5" r="2.5"></circle>
                                <circle id="Oval-Copy-8" cx="40.5" cy="86.5" r="1.5"></circle>
                                <circle id="Oval-Copy-9" cx="43.5" cy="86.5" r="1.5"></circle>
                                <circle id="Oval-Copy-3" cx="23.1210937" cy="88.1210938" r="2.12109375"></circle>
                                <circle id="Oval-Copy" cx="18.5" cy="89.5" r="2.5"></circle>
                            </g>
                            <g id="Bubble" transform="translate(291.000000, 733.000000)">
                                <circle cx="17.6523438" cy="17.6523438" r="17.6523438"></circle>
                                <rect id="1" transform="translate(26.688371, 9.488652) rotate(45.000000) translate(-26.688371, -9.488652) " x="24.9252504" y="7.72553085" width="3.52624199" height="3.52624199"></rect>
                                <rect id="2" transform="translate(29.404117, 14.014894) rotate(45.000000) translate(-29.404117, -14.014894) " x="28.546244" y="13.1570212" width="1.71574519" height="1.71574519"></rect>
                                <rect id="3" transform="translate(29.630429, 17.862200) rotate(45.000000) translate(-29.630429, -17.862200) " x="29.4514924" y="17.6832632" width="1" height="1"></rect>
                            </g>
                        </g>
                        <g id="BottomRight" transform="translate(63.000000, 654.000000)"></g>
                    </g>
                </g>
            </g>
        </g>
    </g>
</svg>