<?xml version="1.0" encoding="utf-8"?>
<!-- Generator: Adobe Illustrator 16.0.0, SVG Export Plug-In . SVG Version: 6.00 Build 0)  -->
<!DOCTYPE svg PUBLIC "-//W3C//DTD SVG 1.1 Tiny//EN" "http://www.w3.org/Graphics/SVG/1.1/DTD/svg11-tiny.dtd">
<svg xmlns="http://www.w3.org/2000/svg" xmlns:xlink="http://www.w3.org/1999/xlink" version="1.1" baseProfile="tiny" id="Layer_1" x="0px" y="0px" width="512px" height="512px" viewBox="0 0 24 24" xml:space="preserve">
<g>
	<path d="M17.452,2.044c-2.343,0-4.455,1.411-5.403,3.485c-0.96-2.1-3.056-3.485-5.443-3.485c-3.306,0-5.996,2.69-5.996,5.996   c0,9.087,10.841,13.693,11.303,13.885c0.049,0.021,0.102,0.031,0.153,0.031s0.104-0.011,0.151-0.03   c0.112-0.046,11.174-4.686,11.174-13.943C23.391,4.708,20.727,2.044,17.452,2.044z M12.066,21.119   C10.75,20.525,1.41,16.028,1.41,8.04c0-2.865,2.33-5.195,5.195-5.195c2.427,0,4.506,1.651,5.056,4.018   c0.042,0.181,0.204,0.31,0.39,0.31c0.001,0,0.001,0,0.002,0c0.187-0.001,0.348-0.131,0.389-0.313   c0.519-2.326,2.626-4.014,5.011-4.014c2.833,0,5.138,2.305,5.138,5.138C22.59,16.123,13.374,20.535,12.066,21.119z" fill="#FFFFFF"/>
	<path d="M15.979,12.578H12.4V9c0-0.221-0.18-0.4-0.4-0.4s-0.4,0.18-0.4,0.4v3.578H8.021c-0.221,0-0.4,0.18-0.4,0.4   s0.18,0.4,0.4,0.4H11.6v3.579c0,0.221,0.18,0.4,0.4,0.4s0.4-0.18,0.4-0.4v-3.579h3.578c0.221,0,0.4-0.18,0.4-0.4   S16.199,12.578,15.979,12.578z" fill="#FFFFFF"/>
</g>
</svg>
